<?xml version="1.0" standalone="no"?>
<!DOCTYPE svg PUBLIC "-//W3C//DTD SVG 20010904//EN"
 "http://www.w3.org/TR/2001/REC-SVG-20010904/DTD/svg10.dtd">
<svg version="1.0" xmlns="http://www.w3.org/2000/svg"
 width="1536.000000pt" height="1024.000000pt" viewBox="0 0 1536.000000 1024.000000"
 preserveAspectRatio="xMidYMid meet">

<g transform="translate(0.000000,1024.000000) scale(0.100000,-0.100000)"
fill="#000000" stroke="none">
<path d="M7800 8926 c-109 -32 -178 -85 -235 -179 -22 -37 -42 -66 -45 -67 -3
0 -14 21 -24 48 -23 56 -105 141 -165 172 -25 12 -71 24 -112 27 -200 17 -326
-95 -345 -305 -14 -152 28 -284 212 -666 181 -374 244 -529 318 -782 l27 -92
-22 -38 c-166 -299 -389 -595 -544 -721 -83 -67 -169 -129 -164 -117 2 5 25
47 51 94 96 177 141 358 141 575 1 219 -39 370 -145 554 -112 196 -275 326
-491 393 -95 29 -336 32 -435 5 -176 -48 -298 -162 -354 -331 -21 -64 -23 -89
-22 -241 0 -158 2 -176 28 -255 60 -181 147 -328 295 -497 125 -143 359 -334
565 -464 l69 -43 -65 -62 c-135 -127 -322 -234 -528 -301 -82 -26 -238 -63
-269 -63 -22 0 -229 92 -541 240 -342 163 -577 247 -850 304 -102 22 -160 30
-385 54 l-60 7 -29 85 c-33 100 -46 262 -27 350 54 251 290 412 585 398 284
-14 549 -163 641 -360 33 -70 32 -127 0 -183 -38 -64 -46 -101 -34 -150 22
-87 87 -129 195 -123 63 3 78 7 111 34 21 16 48 50 61 75 78 148 -85 449 -341
630 -193 136 -428 209 -671 209 -445 -1 -756 -266 -773 -660 -4 -89 -1 -119
20 -195 13 -49 27 -98 31 -107 6 -14 1 -18 -31 -23 -81 -14 -191 -48 -253 -78
-90 -44 -181 -136 -222 -223 -29 -62 -33 -78 -33 -159 0 -81 3 -95 30 -144 32
-58 96 -119 150 -145 50 -24 142 -39 194 -31 70 10 140 53 173 104 49 79 28
126 -35 78 -36 -28 -115 -57 -152 -57 -46 0 -133 40 -164 75 -56 64 -65 169
-22 252 44 87 160 158 303 187 124 26 129 24 179 -41 65 -87 155 -178 239
-241 132 -100 375 -210 577 -262 139 -35 428 -76 648 -90 328 -21 558 -64 765
-142 112 -42 242 -102 200 -93 -328 71 -591 78 -1016 30 -196 -23 -417 -29
-534 -16 -206 23 -404 84 -579 177 -46 24 -85 44 -87 44 -26 0 78 -116 154
-172 128 -95 311 -156 523 -177 155 -15 277 -14 611 5 754 43 1133 -32 1536
-305 91 -62 242 -184 254 -206 4 -7 -36 16 -90 51 -221 146 -526 262 -842 321
-138 26 -510 25 -630 -1 -261 -57 -474 -222 -571 -441 -36 -84 -18 -74 -182
-95 -166 -21 -386 -96 -516 -177 -153 -95 -256 -219 -307 -368 -23 -67 -27
-97 -28 -185 0 -196 56 -334 193 -471 122 -121 249 -191 444 -243 190 -51 266
-60 527 -60 261 0 340 9 510 58 44 13 80 22 80 20 0 -1 -12 -26 -27 -55 -25
-48 -28 -64 -28 -154 0 -87 3 -106 25 -148 28 -56 86 -112 139 -135 77 -33
229 -14 283 35 28 25 22 33 -26 33 -75 0 -103 11 -150 56 -100 99 -105 282
-12 413 l31 44 5 -49 5 -49 27 57 c61 131 273 224 564 248 115 9 285 1 394
-20 295 -55 561 -219 702 -431 38 -57 91 -169 84 -176 -2 -2 -54 45 -115 106
-207 205 -426 327 -703 393 -77 18 -123 22 -273 22 -158 1 -190 -2 -260 -22
-169 -49 -274 -145 -275 -253 0 -55 45 -135 104 -181 127 -101 333 -161 601
-175 139 -6 362 10 487 36 l87 18 30 -31 c42 -44 71 -105 71 -148 0 -48 15
-57 29 -16 17 47 13 142 -7 196 -39 101 -169 253 -283 329 -104 70 -148 95
-204 115 -36 14 -53 24 -42 26 21 4 139 -50 251 -115 79 -47 203 -154 285
-248 24 -27 71 -81 105 -119 102 -113 102 -115 81 -199 -23 -97 -31 -233 -16
-294 7 -26 36 -86 66 -133 29 -47 61 -102 71 -123 10 -20 21 -37 26 -37 4 0
16 17 27 38 11 21 42 76 70 122 28 46 56 102 62 124 17 64 13 182 -10 275 -12
46 -21 92 -21 101 0 38 336 390 433 454 83 54 227 129 234 122 4 -3 4 -7 2 -8
-2 -2 -34 -19 -72 -38 -143 -74 -285 -203 -341 -309 -38 -74 -59 -167 -50
-221 15 -79 44 -90 44 -16 0 44 32 119 73 170 l23 28 33 -31 c37 -35 104 -58
196 -67 106 -11 204 14 128 32 -101 24 -213 104 -213 151 0 101 177 243 365
293 160 43 415 33 485 -19 143 -105 -1 -277 -282 -335 -91 -19 -221 -21 -336
-4 -45 6 -85 8 -89 5 -12 -12 42 -46 107 -68 51 -17 97 -22 220 -26 143 -4
163 -3 255 21 130 34 213 75 278 139 63 62 87 109 87 171 0 130 -136 237 -339
267 -114 16 -321 6 -431 -21 -271 -67 -467 -183 -722 -429 -67 -64 -119 -111
-117 -106 24 57 89 167 137 231 134 177 306 299 528 374 49 17 100 32 114 35
120 20 175 25 308 25 164 0 309 -22 400 -61 114 -49 281 -200 329 -296 24 -51
28 -69 28 -148 0 -73 -4 -98 -22 -130 -46 -86 -146 -155 -226 -155 -34 0 -37
-2 -27 -19 16 -30 92 -54 173 -55 85 0 148 28 209 91 62 64 83 123 83 233 0
83 -4 103 -28 155 -15 33 -41 77 -58 98 -16 20 -27 37 -23 37 4 0 65 -18 136
-41 219 -69 294 -80 555 -86 185 -4 256 -2 355 12 480 66 769 315 794 684 16
228 -109 467 -313 603 -173 116 -408 196 -629 215 l-72 6 -12 41 c-46 158
-197 318 -382 406 -140 67 -255 91 -459 97 -463 15 -869 -97 -1246 -345 -46
-29 -21 -2 55 62 155 129 389 263 556 317 289 95 531 114 1071 84 143 -8 314
-15 380 -15 134 0 358 22 450 44 88 21 214 77 293 130 67 45 199 173 188 183
-3 3 -52 -18 -109 -46 -337 -166 -616 -201 -1152 -145 -97 11 -247 17 -380 17
-229 1 -374 -16 -545 -64 -35 -10 -66 -16 -68 -15 -4 5 158 81 255 120 210 83
383 116 763 146 363 28 559 64 777 146 278 104 467 235 671 467 24 28 38 36
55 32 12 -3 52 -9 90 -15 110 -17 210 -64 269 -126 68 -73 90 -202 48 -289
-56 -116 -172 -143 -318 -75 -76 35 -79 36 -87 10 -14 -45 70 -136 153 -164
27 -10 80 -16 127 -16 71 0 90 4 143 31 129 64 189 170 180 320 -9 146 -104
286 -242 356 -92 47 -262 95 -298 85 -11 -3 -10 32 1 44 5 5 19 41 31 79 30
96 38 294 16 386 -46 199 -180 337 -407 420 -271 100 -605 71 -869 -74 -154
-86 -289 -204 -369 -323 -166 -247 -101 -498 129 -498 77 0 111 16 163 73 33
37 37 47 37 95 0 44 -4 58 -26 80 -15 14 -35 26 -45 26 -16 0 -19 -8 -19 -45
0 -52 -21 -99 -49 -115 -11 -5 -40 -10 -66 -10 -86 0 -117 65 -76 157 61 133
285 361 444 452 221 126 530 146 727 46 173 -88 266 -280 238 -490 -10 -70
-62 -250 -79 -271 -6 -7 -64 -14 -142 -19 -146 -7 -308 -32 -466 -71 -241 -59
-371 -110 -771 -304 -338 -164 -422 -200 -464 -200 -52 0 -256 46 -351 80
-150 53 -303 142 -403 235 l-54 51 38 32 c22 18 107 88 189 156 475 390 714
761 715 1112 0 124 -15 195 -60 290 -68 141 -160 222 -308 272 -71 25 -89 26
-247 26 -154 -1 -178 -3 -260 -28 -291 -86 -497 -282 -599 -567 -109 -304 -83
-618 73 -915 27 -52 47 -94 44 -94 -3 0 -45 26 -92 57 -99 66 -223 187 -313
305 -67 89 -211 312 -273 423 l-38 69 17 50 c30 83 179 397 264 553 44 82 110
208 147 282 174 350 214 585 129 771 -31 69 -108 143 -172 165 -63 23 -204 29
-262 11z m-535 -145 c99 -45 158 -159 196 -379 10 -64 24 -121 30 -129 6 -7
22 -13 35 -13 30 0 39 21 48 120 10 98 58 241 104 310 89 131 282 150 341 32
74 -147 7 -357 -341 -1057 -52 -104 -102 -210 -112 -234 -9 -24 -18 -42 -20
-40 -2 2 -29 65 -59 139 -70 172 -126 302 -222 515 -183 407 -221 544 -181
658 32 90 96 117 181 78z m-962 -1113 c62 -31 103 -63 168 -127 129 -129 211
-284 250 -476 21 -101 25 -281 9 -385 -12 -72 -67 -260 -81 -274 -5 -6 -6 29
-3 85 26 385 -152 915 -389 1162 -31 31 -51 57 -45 57 5 0 47 -19 91 -42z
m2541 -35 c-155 -183 -253 -387 -324 -673 -37 -152 -63 -360 -58 -471 4 -112
-8 -103 -55 46 -44 136 -62 262 -54 376 24 331 198 615 463 756 44 23 83 42
87 42 4 1 -22 -34 -59 -76z m-2824 42 c71 -35 143 -99 199 -174 193 -261 323
-695 308 -1031 -6 -130 -33 -300 -47 -300 -15 0 -198 117 -283 181 -109 82
-309 286 -374 380 -67 98 -136 235 -162 324 -86 288 -5 577 177 636 40 13 143
4 182 -16z m3335 0 c128 -62 205 -227 192 -415 -16 -232 -161 -493 -433 -779
-123 -130 -419 -371 -434 -354 -14 15 -48 118 -66 203 -27 126 -25 340 4 489
44 220 144 477 243 622 80 119 185 213 274 247 46 17 173 10 220 -13z m-1672
-1062 c230 -463 289 -660 273 -913 -11 -181 -59 -355 -194 -695 -41 -104 -96
-252 -122 -327 l-47 -138 -38 113 c-40 122 -80 222 -216 539 -131 308 -168
431 -184 608 -17 186 55 440 204 725 68 130 189 335 197 335 2 0 59 -111 127
-247z m355 -249 c91 -105 195 -177 381 -268 79 -38 111 -62 111 -81 0 -6 -28
-34 -62 -62 -84 -68 -281 -265 -331 -330 -21 -29 -42 -53 -44 -53 -3 0 -2 12
2 28 57 220 22 484 -100 747 -21 44 -44 96 -51 115 l-15 35 23 -30 c13 -16 51
-62 86 -101z m-948 -68 c-76 -161 -94 -236 -94 -391 0 -114 7 -170 31 -231 3
-8 -80 70 -184 173 -216 214 -209 191 -85 253 115 57 239 148 308 226 37 41
68 74 70 74 1 0 -19 -47 -46 -104z m-3145 -276 c298 -48 433 -95 805 -281 162
-81 340 -164 395 -185 55 -20 102 -39 105 -42 3 -3 -75 -2 -172 2 -332 12
-641 83 -878 201 -136 69 -328 207 -400 288 l-32 37 28 0 c16 0 83 -9 149 -20z
m7335 -41 c-193 -179 -503 -327 -844 -404 -105 -23 -426 -60 -463 -53 -9 2 29
26 83 53 54 28 214 109 354 181 200 102 288 142 410 182 176 58 366 97 480
100 l45 1 -65 -60z m-4577 -248 c284 -275 536 -684 679 -1101 69 -202 138
-554 138 -700 l-1 -65 -52 100 c-185 356 -521 747 -877 1019 -227 175 -501
335 -718 421 -50 21 -94 41 -97 45 -3 4 16 11 42 15 26 4 87 20 137 36 195 64
381 180 506 316 l65 70 45 -35 c25 -20 85 -74 133 -121z m2022 79 c60 -61 190
-150 294 -201 71 -36 220 -88 356 -125 l60 -17 -30 -13 c-204 -88 -261 -115
-353 -166 -516 -287 -887 -625 -1198 -1093 -65 -98 -153 -249 -177 -305 l-15
-35 -1 82 c-2 193 64 514 155 756 106 280 266 558 451 782 123 149 367 385
397 385 7 0 34 -23 61 -50z m-2785 -1068 c323 -69 629 -207 895 -406 303 -226
521 -512 618 -811 26 -80 71 -294 63 -302 -2 -2 -37 40 -77 94 -40 54 -130
154 -199 223 -458 457 -1080 751 -1730 819 -134 14 -412 31 -512 31 -92 0 -94
3 -46 92 60 113 195 218 331 259 113 34 144 37 332 34 156 -2 200 -7 325 -33z
m3915 8 c165 -44 322 -153 392 -271 61 -104 79 -95 -204 -102 -348 -9 -511
-28 -783 -94 -381 -91 -810 -307 -1130 -567 -140 -114 -370 -357 -452 -476
l-17 -25 0 35 c-1 98 64 309 144 471 113 228 308 460 530 631 150 115 388 243
567 306 99 35 310 89 383 97 28 4 82 10 120 15 121 15 359 5 450 -20z m-4630
-430 c35 -5 -6 -8 -136 -9 -573 -4 -834 -67 -1015 -246 -85 -84 -128 -167
-149 -287 -19 -105 -19 -150 0 -246 33 -165 145 -327 294 -424 40 -26 67 -48
60 -48 -32 0 -161 84 -233 151 -136 127 -202 274 -200 449 2 184 62 311 205
435 139 120 331 188 634 224 89 11 474 12 540 1z m5389 -25 c104 -16 296 -76
378 -119 145 -74 261 -204 312 -351 26 -75 32 -235 12 -326 -19 -87 -67 -188
-120 -253 -96 -117 -264 -217 -427 -255 -107 -26 -190 -36 -169 -22 8 6 24 11
36 11 52 0 230 79 324 143 86 59 184 170 228 259 53 105 72 181 72 283 0 185
-76 335 -230 453 -36 28 -155 86 -226 110 -132 45 -348 70 -636 73 -107 1
-168 5 -168 12 0 15 493 1 614 -18z m-5228 -70 c726 -73 1359 -410 1839 -979
85 -101 235 -324 235 -350 0 -5 -32 26 -71 68 -170 182 -381 302 -654 372
-103 26 -123 28 -320 28 -198 0 -216 -1 -320 -28 -153 -39 -225 -67 -415 -156
-282 -134 -440 -173 -705 -173 -301 -1 -513 63 -690 209 -59 48 -140 159 -170
232 -84 206 -37 423 124 575 98 92 260 165 424 190 l37 6 0 -42 c0 -69 28
-177 64 -252 94 -197 262 -336 496 -410 114 -36 291 -46 378 -21 47 13 66 14
88 5 81 -31 264 43 264 107 0 62 -66 69 -209 23 -91 -29 -102 -31 -216 -26
-198 8 -328 63 -471 200 -117 110 -191 246 -209 385 l-7 52 180 0 c98 0 246
-7 328 -15z m4914 -12 c0 -68 -48 -194 -107 -285 -136 -207 -396 -332 -691
-330 -118 1 -186 12 -293 49 -110 38 -139 18 -77 -52 113 -130 461 -171 746
-89 231 66 423 214 526 404 39 73 76 200 76 262 0 25 5 41 15 44 25 10 217
-45 300 -85 141 -70 238 -173 287 -306 32 -88 31 -236 -3 -325 -60 -158 -179
-281 -353 -365 -133 -65 -225 -90 -379 -106 -244 -25 -523 29 -791 151 -205
94 -392 153 -561 177 -140 20 -362 12 -485 -16 -158 -36 -334 -112 -461 -198
-93 -62 -231 -189 -284 -259 -27 -36 -51 -60 -53 -54 -7 21 101 221 167 309
257 346 590 621 993 821 277 137 548 218 853 254 173 21 192 22 398 24 l177 2
0 -27z m-712 -1118 c148 -59 332 -117 407 -130 138 -22 197 -42 90 -30 -214
25 -500 115 -648 205 -54 33 -20 23 151 -45z m-3011 -119 c89 -19 201 -65 272
-112 108 -72 229 -204 212 -232 -19 -31 -443 -39 -634 -12 -93 14 -240 63
-301 102 -145 94 -102 220 89 258 69 14 289 11 362 -4z"/>
</g>
</svg>
