<?xml version="1.0" standalone="no"?>
<!DOCTYPE svg PUBLIC "-//W3C//DTD SVG 20010904//EN"
 "http://www.w3.org/TR/2001/REC-SVG-20010904/DTD/svg10.dtd">
<svg version="1.0" xmlns="http://www.w3.org/2000/svg"
 width="1536.000000pt" height="1024.000000pt" viewBox="0 0 1536.000000 1024.000000"
 preserveAspectRatio="xMidYMid meet">

<g transform="translate(0.000000,1024.000000) scale(0.100000,-0.100000)"
fill="#000000" stroke="none">
<path d="M5536 6595 c-32 -70 -47 -74 -189 -45 -276 55 -492 5 -665 -155 -330
-306 -363 -883 -62 -1108 105 -79 150 -92 330 -91 146 0 161 2 257 32 56 18
118 32 136 32 33 0 67 -24 67 -48 0 -15 13 -15 28 0 8 8 79 12 246 12 l234 1
-46 -51 c-43 -47 -51 -52 -92 -53 -25 0 -93 -13 -152 -27 l-108 -27 -72 24
c-63 20 -92 24 -208 23 -129 0 -140 -2 -242 -37 -311 -106 -563 -356 -655
-651 -34 -106 -38 -275 -10 -348 49 -127 237 -200 395 -153 46 14 70 30 60 40
-1 2 -28 -3 -58 -11 -110 -28 -185 -10 -240 58 -43 53 -61 115 -61 213 -1 221
78 407 251 589 146 153 307 240 489 264 77 11 212 -1 265 -23 l39 -16 -84 -47
c-102 -57 -260 -209 -334 -321 -134 -204 -152 -412 -43 -505 22 -19 53 -38 69
-41 16 -4 29 -9 29 -12 0 -21 -229 -264 -302 -319 l-58 -45 -82 7 c-117 9
-237 -25 -255 -72 -11 -28 31 -57 90 -62 55 -4 180 23 236 53 25 12 35 12 92
-7 54 -18 90 -21 229 -22 189 -1 251 11 388 75 112 52 199 116 305 223 154
158 261 318 330 493 56 143 62 177 62 323 0 132 -1 136 -31 190 -37 67 -115
124 -191 142 -29 7 -53 15 -53 19 0 16 115 118 186 165 69 46 278 144 305 144
12 0 11 -27 -2 -73 -13 -48 -43 -67 -132 -84 -74 -14 -85 -18 -73 -30 4 -5
481 -8 1059 -8 956 0 1052 1 1055 16 2 13 -8 16 -60 18 -127 4 -178 31 -178
96 0 30 44 354 56 408 5 23 11 27 37 27 36 0 80 -26 104 -59 8 -13 48 -97 88
-187 40 -90 94 -200 120 -244 l47 -80 871 2 871 3 13 44 c10 36 63 332 63 354
0 4 -6 7 -13 7 -7 0 -33 -44 -57 -97 -34 -75 -57 -111 -100 -155 -77 -76 -117
-88 -330 -95 -148 -5 -167 -4 -180 12 -12 15 -9 50 23 281 21 145 40 271 44
280 5 14 22 16 132 12 187 -7 206 -20 239 -157 4 -19 13 -36 19 -38 14 -5 19
29 33 217 6 74 13 145 15 158 9 37 -23 26 -44 -17 -28 -54 -73 -89 -124 -95
-76 -9 -247 -17 -256 -12 -5 3 -5 25 0 48 4 24 22 150 40 281 32 234 33 239
58 249 42 16 328 1 371 -20 45 -22 75 -81 84 -165 8 -74 21 -100 36 -77 10 16
14 268 4 294 -6 15 -78 16 -745 16 -620 0 -739 -3 -739 -14 0 -10 21 -16 73
-21 109 -9 127 -15 138 -39 10 -22 -4 -133 -127 -1001 -24 -170 -40 -195 -128
-195 -67 0 -95 30 -167 178 -126 262 -132 273 -172 308 -22 18 -39 36 -36 38
2 2 42 15 89 30 95 28 165 71 227 139 110 119 144 304 78 425 -31 57 -77 92
-164 125 -56 22 -57 22 -1193 25 -963 2 -1138 0 -1138 -11 0 -10 22 -16 84
-21 105 -8 132 -17 138 -50 4 -17 -59 -482 -71 -533 -1 -2 -123 -3 -272 -3
l-271 0 6 33 c3 17 19 131 37 252 17 121 36 231 43 245 15 34 47 47 136 57 41
4 74 13 73 18 -4 15 -545 14 -550 -1 -2 -7 13 -15 34 -19 71 -13 76 -19 70
-88 -5 -65 -116 -880 -141 -1030 -8 -49 -22 -97 -30 -106 -15 -16 -114 -57
-120 -50 -2 2 5 67 15 144 35 264 42 335 35 342 -11 11 -27 -12 -51 -71 -70
-171 -188 -316 -293 -358 -45 -17 -78 -22 -153 -23 -90 0 -100 2 -165 35 -58
30 -76 45 -111 97 -71 106 -99 242 -90 433 11 229 82 414 207 541 137 140 320
184 468 113 29 -14 64 -41 78 -59 43 -57 75 -166 81 -274 6 -125 10 -146 27
-132 17 15 56 297 73 534 7 104 -5 114 -41 32z m1432 -97 c15 -15 15 -71 2
-152 -5 -34 -33 -225 -60 -426 -28 -200 -52 -365 -53 -366 -6 -3 -243 -30
-246 -28 -2 2 2 38 8 81 6 43 33 240 61 438 27 198 54 377 60 398 8 29 19 42
43 52 40 18 168 20 185 3z m641 -16 c61 -29 81 -71 106 -225 9 -58 29 -40 37
34 4 35 11 98 15 139 8 74 9 75 38 78 16 2 53 1 83 -3 41 -5 55 -11 63 -29 8
-16 1 -84 -25 -256 -20 -129 -53 -365 -75 -524 -22 -159 -42 -291 -45 -293 -4
-4 -96 45 -96 50 0 1 7 38 15 82 18 102 19 125 1 125 -8 0 -18 -10 -21 -22 -4
-13 -20 -51 -37 -85 -32 -70 -45 -75 -115 -49 -77 28 -202 49 -333 57 -74 4
-136 8 -138 8 -2 1 -1 9 2 19 3 9 13 69 21 132 23 170 6 153 154 148 157 -6
194 -20 220 -80 11 -24 22 -62 26 -85 12 -72 32 -54 40 35 3 42 10 124 15 181
13 135 13 151 -2 150 -7 0 -26 -21 -43 -46 -51 -78 -65 -84 -225 -95 -77 -6
-144 -8 -147 -5 -3 3 11 127 31 274 20 147 36 271 36 275 0 4 8 14 17 24 16
15 34 16 182 10 126 -5 173 -10 200 -24z m1890 22 c22 -5 33 -14 37 -30 3 -13
-8 -122 -25 -241 -17 -120 -44 -317 -61 -438 -46 -332 -69 -467 -83 -483 -22
-27 -75 -42 -145 -42 -55 0 -75 4 -96 21 -31 24 -33 50 -11 183 8 50 30 208
50 351 70 518 77 561 91 612 11 41 20 53 42 61 31 12 154 15 201 6z m-1058
-19 c100 -36 146 -124 137 -264 -6 -80 -33 -166 -71 -222 -12 -19 -48 -54 -80
-80 -65 -52 -127 -74 -249 -87 l-78 -8 0 25 c0 15 14 118 30 231 32 215 60
411 60 417 0 11 214 1 251 -12z m-2011 -640 c0 -42 -51 -370 -58 -376 -4 -3
-43 -18 -87 -34 -94 -32 -154 -61 -251 -121 -45 -28 -82 -44 -103 -44 -48 0
-99 25 -106 52 -5 20 58 502 70 536 3 9 66 12 270 12 l265 0 0 -25z m925 -345
c93 -12 226 -51 232 -67 8 -21 -53 -80 -112 -108 -62 -30 -157 -45 -296 -45
-126 0 -135 5 -125 78 3 26 9 70 12 99 5 35 12 54 23 57 20 6 184 -3 266 -14z
m-506 -17 c-1 -64 -27 -177 -44 -189 -29 -22 -124 -29 -170 -13 l-40 14 1 83
c1 45 4 86 8 90 6 5 142 29 239 41 4 1 7 -11 6 -26z m939 -144 c4 -34 -27 -59
-79 -66 l-42 -6 7 33 c3 19 11 51 17 72 l10 38 42 -23 c29 -16 43 -31 45 -48z
m-2009 -278 c-8 -10 -34 -47 -58 -82 -24 -35 -46 -66 -48 -69 -2 -2 -29 21
-59 52 l-56 57 34 17 c51 27 109 43 157 43 41 1 43 0 30 -18z m176 -22 c36
-17 60 -38 84 -74 32 -48 33 -52 29 -130 -6 -98 -40 -188 -134 -360 -132 -241
-244 -396 -398 -551 -123 -124 -204 -181 -304 -216 -56 -19 -87 -23 -192 -23
-118 1 -210 15 -210 34 0 5 28 26 63 49 65 42 186 160 282 275 31 37 58 67 60
67 26 0 163 33 204 50 73 28 185 105 220 149 104 132 129 340 61 499 l-21 49
46 77 c77 130 85 139 125 133 20 -2 58 -15 85 -28z m-365 -101 c27 -29 50 -57
50 -61 0 -12 -251 -390 -350 -528 -147 -204 -161 -217 -201 -186 -65 50 -46
227 43 387 88 159 340 440 394 440 7 0 36 -24 64 -52z m121 -243 c17 -100 6
-205 -30 -282 -59 -125 -215 -231 -380 -258 l-45 -7 31 38 c105 135 269 396
348 553 36 73 37 74 50 50 8 -13 19 -55 26 -94z m-1047 -974 c40 -8 20 -23
-68 -50 -93 -29 -146 -27 -146 5 0 35 134 63 214 45z"/>
<path d="M6210 5086 c0 -10 25 -15 97 -20 106 -8 150 -24 158 -59 5 -17 -66
-167 -276 -583 -155 -307 -296 -579 -314 -604 -43 -61 -83 -86 -172 -106 -50
-11 -71 -19 -62 -25 8 -5 146 -9 307 -9 236 0 292 3 292 13 0 9 -27 17 -89 24
-51 6 -101 17 -115 27 -51 33 -31 117 99 401 57 124 34 115 285 115 173 0 220
-3 229 -14 16 -19 71 -325 71 -396 0 -97 -40 -127 -187 -139 -40 -3 -74 -10
-76 -16 -2 -11 1318 -20 1361 -10 40 10 14 23 -60 30 -151 14 -178 33 -178
120 1 101 57 469 78 511 19 37 97 149 292 421 107 149 221 266 275 283 22 7
73 15 114 19 46 4 76 11 79 19 3 9 -67 12 -330 12 -188 0 -339 -4 -348 -10
-21 -13 -4 -17 103 -24 100 -7 144 -25 153 -62 11 -42 2 -56 -238 -386 -53
-73 -106 -144 -116 -156 l-18 -24 -99 209 c-155 328 -164 353 -127 386 17 15
104 35 176 40 22 1 41 8 44 15 3 9 -78 12 -382 12 -320 0 -386 -2 -386 -14 0
-9 20 -15 68 -19 149 -12 194 -48 262 -205 220 -510 233 -543 232 -617 -1 -84
-38 -374 -54 -428 -23 -76 -84 -104 -208 -95 -113 8 -154 45 -184 163 -19 73
-213 1089 -222 1163 l-7 52 -263 0 c-216 0 -264 -2 -264 -14z m369 -444 c30
-152 57 -287 59 -299 l4 -23 -212 0 c-128 0 -210 4 -208 9 10 29 293 591 298
591 3 0 29 -125 59 -278z"/>
<path d="M8245 4750 c-3 -5 4 -45 15 -87 53 -190 50 -184 73 -181 18 3 25 18
45 101 14 54 26 96 28 94 4 -4 35 -112 48 -170 5 -22 12 -28 29 -25 18 3 27
21 59 133 22 77 34 133 28 139 -21 21 -38 -7 -60 -99 -14 -58 -26 -91 -31 -83
-4 7 -18 52 -30 101 -19 79 -24 88 -43 85 -18 -3 -25 -19 -47 -103 l-26 -100
-11 40 c-6 22 -16 62 -22 90 -14 65 -38 93 -55 65z"/>
<path d="M8614 4751 c-2 -2 -4 -64 -4 -138 l0 -133 85 0 c78 0 85 2 85 20 0
18 -7 20 -60 20 l-60 0 0 40 0 40 50 0 c43 0 50 3 50 20 0 17 -7 20 -50 20
l-50 0 0 40 0 40 60 0 c52 0 60 2 60 19 0 18 -7 19 -81 18 -44 -1 -82 -4 -85
-6z"/>
<path d="M8828 4754 c-5 -4 -8 -67 -8 -141 l0 -133 60 0 c72 0 113 19 140 63
36 59 18 158 -34 192 -27 18 -146 32 -158 19z m117 -44 c38 -15 60 -73 46
-122 -14 -45 -44 -68 -91 -68 l-35 0 1 93 c0 50 1 95 2 100 3 10 46 9 77 -3z"/>
<path d="M9088 4754 c-5 -4 -8 -67 -8 -141 l0 -133 55 0 c109 0 165 49 165
143 0 56 -22 100 -58 117 -32 14 -144 25 -154 14z m151 -70 c19 -23 22 -35 18
-73 -6 -56 -42 -91 -93 -91 l-34 0 0 101 0 102 42 -6 c30 -4 50 -14 67 -33z"/>
<path d="M9450 4620 c0 -129 1 -141 18 -138 15 3 17 16 17 101 0 53 2 97 5 97
3 0 25 -35 50 -77 57 -96 78 -123 96 -123 11 0 14 25 14 141 0 128 -2 140 -17
137 -15 -3 -19 -18 -23 -92 l-5 -89 -55 89 c-39 63 -62 90 -78 92 -22 3 -22 2
-22 -138z"/>
<path d="M9773 4745 c-47 -20 -73 -68 -73 -134 0 -49 3 -57 39 -92 35 -35 44
-39 89 -39 70 0 91 20 94 90 l3 55 -47 3 c-29 2 -48 -1 -48 -7 0 -6 -1 -14 -2
-18 -2 -4 10 -10 27 -13 56 -10 36 -70 -24 -72 -52 -2 -86 39 -86 103 0 43 4
54 28 75 34 29 78 31 101 5 19 -21 46 -18 46 4 0 22 -51 55 -84 55 -17 -1 -46
-7 -63 -15z"/>
<path d="M9350 4615 c0 -128 1 -135 20 -135 19 0 20 7 20 135 0 128 -1 135
-20 135 -19 0 -20 -7 -20 -135z"/>
<path d="M8291 4365 c-59 -51 -65 -147 -11 -205 24 -25 35 -30 77 -30 55 0 86
17 108 60 31 59 12 150 -37 184 -35 25 -101 20 -137 -9z m100 -15 c30 -17 52
-68 45 -108 -7 -43 -42 -82 -73 -82 -69 0 -99 108 -47 169 27 33 44 37 75 21z"/>
<path d="M8530 4260 c0 -123 1 -130 20 -130 18 0 20 7 20 55 0 40 4 55 14 55
7 0 30 -25 50 -55 24 -36 43 -55 56 -55 26 0 25 7 -9 59 l-30 45 25 29 c31 36
31 71 -1 102 -20 21 -34 25 -85 25 l-60 0 0 -130z m111 79 c18 -18 19 -23 6
-42 -8 -13 -27 -23 -46 -25 -31 -3 -31 -3 -31 42 0 42 2 46 25 46 14 0 34 -9
46 -21z"/>
<path d="M8775 4357 c-43 -43 -53 -93 -30 -153 22 -57 51 -76 114 -76 79 1 91
12 91 82 l0 60 -44 0 c-25 0 -47 -4 -51 -9 -7 -12 28 -32 47 -29 19 4 11 -44
-9 -59 -26 -20 -62 -15 -88 12 -20 19 -25 34 -25 74 0 43 4 53 32 76 34 29 67
28 101 -3 13 -12 20 -13 29 -4 9 9 6 18 -12 37 -19 20 -33 25 -73 25 -42 0
-54 -5 -82 -33z"/>
<path d="M9060 4376 c0 -8 -20 -66 -44 -130 -42 -113 -43 -116 -21 -116 16 0
26 10 37 38 15 37 23 40 90 33 4 -1 12 -17 19 -36 10 -27 19 -35 37 -35 19 0
23 4 17 18 -4 9 -26 68 -48 130 -36 98 -44 112 -64 112 -13 0 -23 -6 -23 -14z
m46 -133 c-2 -3 -13 -3 -23 -1 -17 3 -18 7 -10 38 l10 35 14 -34 c8 -18 12
-35 9 -38z"/>
<path d="M9230 4260 c0 -125 1 -130 21 -130 19 0 20 5 18 85 -1 47 0 87 2 90
3 2 29 -36 59 -86 80 -129 90 -124 90 41 0 125 -1 130 -21 130 -19 0 -20 -5
-17 -95 3 -93 -3 -120 -16 -69 -11 44 -97 164 -117 164 -18 0 -19 -10 -19
-130z"/>
<path d="M9480 4276 c0 -63 -3 -121 -6 -130 -5 -12 0 -16 20 -16 l26 0 0 130
c0 123 -1 130 -20 130 -19 0 -20 -7 -20 -114z"/>
<path d="M9570 4380 c0 -5 0 -13 0 -17 0 -5 24 -10 54 -13 l55 -5 -65 -100
c-35 -55 -64 -103 -64 -107 0 -5 43 -8 95 -8 75 0 95 3 95 14 0 10 -19 16 -64
21 l-64 7 59 91 c80 123 79 127 -21 127 -47 0 -80 -4 -80 -10z"/>
<path d="M9831 4368 c-28 -74 -81 -226 -81 -232 0 -3 8 -6 18 -6 13 0 24 13
35 40 14 37 19 40 52 40 33 0 38 -4 53 -40 13 -30 23 -40 40 -40 22 0 29 18
14 36 -9 9 -52 122 -72 187 -13 43 -45 51 -59 15z m45 -89 l12 -39 -30 0 c-23
0 -28 4 -24 18 3 9 8 30 12 45 8 34 15 28 30 -24z"/>
<path d="M9962 4373 c2 -13 14 -19 41 -21 l37 -3 0 -110 c0 -102 1 -109 20
-109 19 0 20 7 20 110 l0 110 35 0 c28 0 35 4 35 20 0 19 -7 20 -96 20 -86 0
-95 -2 -92 -17z"/>
<path d="M10180 4260 c0 -123 1 -130 20 -130 19 0 20 7 20 130 0 123 -1 130
-20 130 -19 0 -20 -7 -20 -130z"/>
<path d="M10306 4358 c-59 -59 -56 -169 5 -212 14 -10 43 -16 74 -16 85 0 126
59 112 163 -8 60 -51 97 -113 97 -39 0 -51 -5 -78 -32z m119 -20 c49 -43 42
-148 -12 -169 -37 -14 -52 -11 -78 16 -37 37 -35 106 4 146 35 35 52 36 86 7z"/>
<path d="M10540 4260 c0 -123 1 -130 20 -130 17 0 20 8 22 91 l3 91 58 -91
c84 -131 94 -124 96 62 2 101 1 107 -18 107 -18 0 -20 -8 -23 -87 l-3 -88 -55
87 c-43 68 -60 88 -77 88 -23 0 -23 -2 -23 -130z"/>
<path d="M8310 4037 c-28 -14 -38 -54 -20 -87 10 -18 7 -24 -14 -41 -33 -26
-35 -77 -6 -104 25 -22 78 -25 115 -5 19 10 28 11 37 2 14 -14 48 -16 48 -3 0
5 -7 14 -15 21 -12 10 -14 24 -9 58 5 35 4 44 -7 40 -8 -3 -15 -14 -17 -26 -4
-27 -14 -28 -35 -4 -22 24 -21 35 3 57 27 24 26 70 -2 89 -27 19 -45 20 -78 3z
m59 -39 c7 -17 4 -28 -10 -43 -17 -17 -21 -18 -29 -5 -11 17 -13 54 -3 63 13
14 34 6 42 -15z m-15 -124 c31 -39 25 -54 -21 -54 -21 0 -53 23 -53 38 0 11
30 52 38 52 4 0 20 -16 36 -36z"/>
<path d="M10074 4043 c-41 -8 -76 -58 -82 -114 -9 -92 35 -143 122 -142 67 2
82 14 89 74 4 29 4 56 1 60 -7 11 -91 12 -98 1 -9 -14 11 -34 30 -30 14 2 20
-4 22 -24 4 -33 -31 -54 -72 -44 -57 14 -74 129 -26 168 27 22 73 23 94 3 8
-8 22 -12 30 -9 54 21 -44 71 -110 57z"/>
<path d="M8570 3915 c0 -118 1 -125 20 -125 17 0 20 7 20 45 0 45 0 45 36 45
52 0 99 48 90 92 -11 54 -31 68 -103 68 l-63 0 0 -125z m108 83 c30 -30 3 -82
-40 -76 -18 2 -23 10 -24 38 0 19 1 38 3 43 6 11 48 8 61 -5z"/>
<path d="M8770 3915 l0 -125 94 0 95 0 13 35 c12 35 14 36 57 33 42 -3 46 -6
55 -35 7 -26 14 -33 34 -33 19 0 23 4 17 18 -4 9 -22 58 -40 107 -18 50 -36
98 -40 108 -4 9 -17 17 -29 17 -19 0 -26 -11 -45 -67 -45 -134 -64 -175 -72
-161 -5 7 -25 14 -46 15 -21 1 -41 2 -45 2 -5 1 -8 48 -8 106 0 98 -1 105 -20
105 -19 0 -20 -7 -20 -125z m270 43 c0 -13 3 -33 6 -45 5 -20 2 -23 -20 -23
-29 0 -30 1 -15 53 11 41 29 50 29 15z"/>
<path d="M9170 3915 c0 -118 1 -125 20 -125 18 0 20 8 22 93 l3 92 25 -41 c14
-23 39 -65 55 -93 22 -37 36 -51 53 -51 22 0 22 2 22 125 0 123 0 125 -23 125
-22 0 -23 -3 -19 -68 6 -99 1 -116 -22 -72 -47 88 -88 140 -112 140 l-24 0 0
-125z"/>
<path d="M9420 3914 c0 -111 2 -125 16 -122 15 3 17 16 15 91 -2 58 1 87 8 83
5 -4 33 -45 61 -91 36 -60 57 -85 71 -85 18 0 19 8 19 125 0 121 -1 125 -21
125 -21 0 -21 -4 -17 -85 2 -47 1 -85 -4 -85 -4 0 -8 4 -8 9 0 5 -22 43 -50
85 -35 53 -56 76 -70 76 -19 0 -20 -6 -20 -126z"/>
<path d="M9660 3915 c0 -118 1 -125 20 -125 19 0 20 7 20 125 0 118 -1 125
-20 125 -19 0 -20 -7 -20 -125z"/>
<path d="M9753 3915 c1 -113 2 -125 19 -125 16 0 18 10 19 93 0 75 2 89 12 73
7 -10 33 -51 60 -92 33 -51 53 -74 67 -74 19 0 20 7 20 125 0 118 -1 125 -20
125 -18 0 -20 -7 -20 -87 l0 -88 -57 88 c-43 67 -61 87 -79 87 -22 0 -23 -1
-21 -125z"/>
</g>
</svg>
