<?xml version="1.0" standalone="no"?>
<!DOCTYPE svg PUBLIC "-//W3C//DTD SVG 20010904//EN"
 "http://www.w3.org/TR/2001/REC-SVG-20010904/DTD/svg10.dtd">
<svg version="1.0" xmlns="http://www.w3.org/2000/svg"
 width="1536.000000pt" height="1024.000000pt" viewBox="0 0 1536.000000 1024.000000"
 preserveAspectRatio="xMidYMid meet">

<g transform="translate(0.000000,1024.000000) scale(0.100000,-0.100000)"
fill="#000000" stroke="none">
<path d="M12237 6263 c-4 -3 3 -17 13 -31 50 -63 3 -145 -100 -176 -107 -32
-365 -14 -565 39 -438 117 -560 138 -800 139 -286 1 -510 -65 -714 -212 l-66
-47 -110 3 c-116 4 -183 -7 -284 -46 l-54 -21 -29 24 c-61 51 -234 79 -340 55
-168 -39 -350 -194 -435 -369 -31 -64 -37 -87 -41 -167 -4 -86 -3 -97 22 -149
34 -69 74 -100 155 -121 76 -19 134 -13 202 22 80 40 73 59 -11 29 -53 -19
-160 -19 -203 -1 -74 30 -114 116 -104 221 27 273 296 521 548 503 69 -5 177
-48 186 -73 1 -5 -18 -23 -45 -40 -75 -48 -153 -133 -196 -214 -33 -63 -39
-84 -40 -140 -1 -79 17 -115 70 -137 29 -12 39 -12 74 0 175 60 288 281 236
461 -14 47 -15 59 -4 67 63 41 338 79 338 46 0 -8 -14 -27 -31 -44 -63 -59
-183 -218 -316 -421 -152 -232 -213 -312 -299 -394 -98 -93 -101 -94 -181 -74
-93 24 -238 25 -279 3 -17 -10 -34 -24 -38 -33 -10 -26 11 -61 46 -76 52 -22
199 -17 281 9 65 22 70 22 120 7 72 -22 253 -30 360 -16 298 40 548 248 644
536 22 66 27 99 27 190 1 95 -2 117 -23 163 -24 53 -121 154 -161 167 -11 3
-20 10 -20 15 0 17 113 83 208 122 161 66 267 89 439 95 203 7 308 -8 663 -97
325 -81 346 -84 570 -85 205 0 205 0 262 28 88 43 127 117 98 187 -12 30 -61
65 -73 53z m-2188 -357 c41 -22 88 -80 100 -123 36 -127 -21 -343 -135 -514
-136 -205 -294 -309 -515 -341 -79 -11 -211 0 -231 20 -5 5 19 25 59 48 144
83 281 252 433 534 40 74 91 167 112 206 43 77 124 184 139 184 6 0 23 -7 38
-14z m-483 -113 c31 -106 -2 -225 -87 -318 -83 -90 -138 -112 -184 -72 -23 19
-27 31 -27 69 2 70 47 171 106 235 49 55 154 143 168 143 4 0 15 -26 24 -57z
m-486 -836 l35 -15 -28 -11 c-39 -15 -146 -31 -174 -26 -13 3 -34 7 -48 10
-32 7 -34 42 -2 55 31 14 175 5 217 -13z"/>
<path d="M3708 6070 c-126 -20 -288 -118 -363 -219 -120 -164 -164 -381 -115
-560 30 -105 64 -167 134 -237 102 -101 241 -154 406 -153 81 0 118 7 278 54
l62 18 25 -23 c41 -38 51 -23 58 87 8 121 7 250 -2 283 -7 24 -8 24 -18 5 -5
-11 -15 -41 -21 -66 -28 -113 -91 -205 -176 -254 -137 -79 -337 -46 -454 75
-150 155 -185 472 -79 704 95 207 346 296 533 190 80 -45 131 -130 160 -261
19 -92 27 -109 43 -99 12 8 16 371 5 414 -7 25 -26 29 -44 7 -17 -20 -36 -19
-132 9 -96 28 -219 38 -300 26z"/>
<path d="M4240 6041 c0 -5 20 -17 44 -26 24 -9 49 -27 55 -38 8 -16 11 -152 9
-493 -3 -528 0 -503 -76 -521 -19 -5 -37 -14 -40 -21 -3 -9 47 -12 217 -12
138 0 221 4 221 10 0 5 -12 12 -27 16 -124 27 -123 25 -123 309 l0 225 243 -2
242 -3 3 -210 c2 -131 -1 -224 -8 -247 -11 -40 -38 -60 -97 -73 -80 -17 -20
-25 182 -25 213 0 258 8 177 30 -21 5 -49 21 -62 35 l-23 24 -2 378 c-1 208 0
422 3 477 6 111 16 128 84 147 81 21 36 29 -177 29 -118 0 -215 -4 -215 -8 0
-5 25 -16 56 -26 81 -25 85 -40 82 -274 l-3 -187 -242 -3 -243 -2 0 203 c0
238 3 246 90 268 27 7 50 16 50 21 0 4 -94 8 -210 8 -121 0 -210 -4 -210 -9z"/>
<path d="M5355 6041 c-3 -5 5 -12 17 -16 57 -16 80 -30 93 -56 13 -23 15 -104
15 -474 0 -509 1 -503 -71 -527 -23 -8 -45 -20 -47 -26 -3 -9 94 -12 406 -12
l410 0 6 63 c13 153 15 223 6 237 -13 20 -24 5 -39 -55 -24 -97 -89 -163 -181
-184 -25 -6 -97 -11 -161 -11 -169 0 -158 -18 -159 260 -1 124 -1 231 -1 238
1 15 159 17 214 1 52 -14 73 -38 92 -104 9 -30 21 -55 26 -55 5 0 9 76 9 181
0 140 -3 180 -12 177 -7 -3 -15 -13 -16 -24 -17 -90 -68 -116 -215 -112 l-98
3 -1 210 c0 116 0 218 1 228 1 15 15 17 137 17 74 0 155 -5 179 -11 72 -18
118 -77 146 -187 22 -89 34 -57 37 101 l3 147 -395 0 c-232 0 -397 -4 -401 -9z"/>
<path d="M6200 6042 c0 -5 19 -14 43 -21 23 -7 52 -22 65 -34 l22 -20 0 -472
c0 -537 4 -510 -84 -535 -25 -7 -43 -16 -40 -21 7 -12 464 -12 464 1 0 5 -17
12 -37 15 -53 9 -111 35 -119 54 -4 9 -9 105 -12 214 l-4 197 50 0 c28 0 63
-5 77 -12 17 -8 67 -77 153 -212 70 -111 140 -216 156 -233 l28 -33 329 0
c190 0 329 4 329 9 0 5 -25 17 -56 27 -87 27 -84 9 -83 521 0 312 4 448 12
473 11 31 19 37 70 54 31 10 57 22 57 27 0 5 -99 9 -220 9 -220 0 -264 -7
-179 -30 23 -6 52 -22 65 -35 l24 -24 0 -468 c0 -526 4 -498 -75 -528 -42 -17
-46 -17 -77 2 -37 21 -116 125 -232 305 -44 68 -89 133 -100 145 -23 27 -26
24 45 52 73 29 151 98 183 163 29 58 36 157 14 219 -32 97 -112 163 -222 186
-70 14 -646 19 -646 5z m590 -72 c69 -39 101 -95 107 -189 7 -103 -13 -165
-73 -225 -57 -57 -121 -79 -234 -80 l-85 -1 -3 230 c-2 127 0 245 3 264 l6 33
117 -4 c102 -3 123 -6 162 -28z"/>
<path d="M7682 6039 c2 -6 26 -18 53 -28 33 -10 54 -24 62 -41 10 -19 12 -131
11 -492 -3 -520 1 -487 -74 -513 -92 -31 -54 -35 375 -35 l420 0 5 43 c3 23 8
95 11 160 7 141 -4 151 -44 36 -30 -86 -86 -151 -147 -169 -22 -7 -103 -14
-181 -17 -122 -5 -146 -3 -168 11 l-25 16 0 240 0 240 98 0 c113 -1 171 -12
190 -37 7 -10 21 -44 30 -75 9 -32 22 -56 27 -55 16 6 19 357 3 357 -7 0 -20
-21 -28 -47 -24 -75 -48 -86 -195 -91 l-125 -4 0 232 0 232 168 -4 c182 -4
212 -12 250 -65 18 -27 43 -94 56 -156 4 -16 12 -27 19 -24 8 2 13 46 15 150
l3 147 -407 0 c-291 0 -405 -3 -402 -11z"/>
<path d="M10590 5964 c0 -4 7 -12 16 -18 31 -23 18 -78 -66 -272 -45 -104
-106 -245 -135 -314 -146 -349 -168 -381 -264 -398 -25 -4 -46 -13 -49 -20 -3
-9 44 -12 207 -12 116 0 211 4 211 9 0 11 -35 21 -76 21 -45 0 -84 34 -84 73
0 18 19 79 43 137 l42 105 204 0 204 0 44 -125 c25 -70 41 -134 38 -146 -5
-21 -67 -54 -100 -54 -8 0 -15 -4 -15 -10 0 -6 75 -10 205 -10 209 0 240 6
173 35 -18 7 -44 24 -56 38 -24 26 -90 206 -260 709 l-87 257 -97 1 c-54 0
-98 -3 -98 -6z m149 -385 c39 -119 71 -222 71 -228 0 -8 -51 -11 -170 -11 -93
0 -170 3 -170 8 0 4 32 84 71 177 39 94 80 196 92 227 12 32 25 54 28 50 3 -4
38 -104 78 -223z"/>
<path d="M10960 5960 c0 -5 19 -15 43 -21 78 -23 90 -41 216 -330 49 -112 100
-229 115 -259 24 -51 26 -65 26 -195 0 -160 -5 -173 -70 -195 -22 -7 -43 -17
-46 -22 -3 -4 101 -8 230 -8 143 0 236 4 236 10 0 5 -28 12 -61 16 -47 5 -69
13 -90 33 l-29 26 -1 160 -1 161 67 119 c180 323 258 436 308 450 47 13 96 38
91 46 -3 5 -91 9 -197 9 -164 0 -189 -2 -172 -14 11 -7 36 -16 56 -20 49 -9
72 -35 63 -72 -3 -16 -61 -122 -128 -236 l-121 -207 -21 42 c-54 106 -174 397
-174 421 0 31 26 49 98 67 28 7 52 16 52 21 0 4 -110 8 -245 8 -150 0 -245 -4
-245 -10z"/>
</g>
</svg>
