<?xml version="1.0" standalone="no"?>
<!DOCTYPE svg PUBLIC "-//W3C//DTD SVG 20010904//EN"
 "http://www.w3.org/TR/2001/REC-SVG-20010904/DTD/svg10.dtd">
<svg version="1.0" xmlns="http://www.w3.org/2000/svg"
 width="1536.000000pt" height="1024.000000pt" viewBox="0 0 1536.000000 1024.000000"
 preserveAspectRatio="xMidYMid meet">

<g transform="translate(0.000000,1024.000000) scale(0.100000,-0.100000)"
fill="#000000" stroke="none">
<path d="M7365 8465 c-1260 -133 -2369 -1011 -2848 -2255 -96 -251 -169 -541
-214 -860 -25 -180 -25 -652 0 -835 75 -538 266 -1028 561 -1440 167 -233 328
-414 526 -588 398 -350 810 -585 1315 -750 110 -36 438 -106 590 -126 514 -67
1042 -17 1531 145 559 185 1016 466 1391 854 197 205 281 314 450 590 261 425
416 920 464 1480 14 162 6 546 -15 700 -92 678 -348 1275 -780 1815 -110 138
-406 431 -556 552 -323 258 -638 428 -1055 570 -229 77 -433 121 -690 148
-169 18 -503 18 -670 0z m736 -91 c487 -60 973 -240 1381 -511 498 -331 911
-790 1181 -1313 169 -329 282 -662 346 -1020 36 -205 46 -328 45 -590 0 -284
-19 -461 -75 -705 -128 -566 -415 -1108 -794 -1503 -272 -285 -605 -525 -961
-697 -277 -133 -588 -234 -874 -285 -231 -41 -338 -50 -609 -50 -327 0 -548
27 -856 107 -487 125 -975 380 -1371 719 -403 344 -744 803 -915 1231 -175
439 -249 837 -236 1268 11 334 58 625 154 935 255 826 800 1527 1538 1980 94
58 363 189 478 234 329 127 645 196 1017 220 103 7 434 -5 551 -20z"/>
<path d="M7465 8329 c-169 -12 -305 -34 -494 -80 -473 -114 -839 -290 -1231
-595 -242 -188 -419 -370 -616 -634 -290 -388 -463 -746 -588 -1220 -121 -461
-140 -1003 -50 -1435 151 -721 523 -1318 1144 -1835 368 -306 857 -549 1350
-669 263 -64 389 -76 790 -76 324 1 386 7 659 62 377 75 802 254 1161 488 415
270 760 644 1015 1100 403 720 495 1619 254 2465 -204 711 -639 1340 -1255
1812 -320 244 -788 461 -1184 548 -291 63 -669 91 -955 69z m640 -93 c445 -67
772 -177 1128 -380 193 -110 260 -158 472 -335 628 -524 1036 -1234 1164
-2026 52 -320 54 -731 7 -1010 -77 -448 -232 -846 -472 -1210 -225 -342 -630
-727 -989 -940 -204 -121 -440 -227 -680 -307 -327 -108 -567 -147 -955 -153
-433 -7 -693 34 -1097 174 -449 155 -799 367 -1158 700 -476 442 -778 937
-926 1520 -70 273 -83 386 -83 706 0 290 5 355 54 617 49 261 167 614 280 838
277 550 672 996 1180 1332 390 257 902 438 1375 483 175 17 559 12 700 -9z"/>
<path d="M7491 8071 c-38 -7 -46 -18 -31 -41 7 -10 12 -12 18 -4 8 12 142 29
142 18 0 -7 -39 -81 -134 -256 -20 -37 -36 -70 -36 -73 0 -4 53 -5 118 -3 108
3 117 5 120 23 3 19 -2 20 -83 16 l-85 -3 45 80 c74 135 124 239 118 246 -8 7
-146 6 -192 -3z"/>
<path d="M7875 8073 c-5 -5 -34 -69 -64 -143 -30 -74 -63 -152 -73 -172 l-18
-38 28 0 c25 0 29 5 40 47 7 26 17 52 22 58 5 6 36 9 73 7 l65 -4 15 -41 c9
-23 17 -51 19 -62 2 -14 12 -21 36 -23 37 -4 37 -3 16 46 -9 20 -38 102 -64
182 -37 110 -53 146 -67 148 -10 1 -22 -1 -28 -5z m25 -73 c0 -11 9 -45 19
-75 10 -29 16 -56 13 -59 -8 -8 -102 -7 -102 1 0 3 12 39 27 80 27 72 43 92
43 53z"/>
<path d="M7318 8053 c-24 -4 -26 -7 -18 -26 12 -28 40 -233 40 -294 0 -42 2
-45 23 -39 12 3 27 6 34 6 8 0 9 9 3 33 -11 42 -40 276 -37 301 2 21 -6 25
-45 19z"/>
<path d="M8078 8054 c-11 -10 -10 -44 1 -44 5 0 11 5 13 11 3 8 18 9 46 4 40
-6 43 -9 38 -33 -3 -15 -13 -72 -21 -126 -9 -55 -23 -115 -31 -134 -8 -19 -13
-37 -11 -38 2 -2 18 -7 35 -10 30 -6 32 -5 32 22 0 30 44 256 55 287 8 20 8
19 57 8 27 -6 40 -5 48 4 20 25 -17 35 -190 51 -36 3 -68 2 -72 -2z"/>
<path d="M7145 7998 c21 -65 56 -210 52 -214 -5 -6 -192 147 -214 173 -15 19
-69 14 -64 -7 2 -8 14 -51 27 -95 19 -68 40 -159 49 -215 1 -9 11 -14 26 -12
31 3 31 3 15 48 -29 82 -66 207 -63 211 4 3 100 -76 217 -178 66 -59 78 -50
56 38 -8 32 -24 106 -36 166 -21 101 -24 107 -47 107 -22 0 -24 -3 -18 -22z"/>
<path d="M8387 7973 c3 -24 -8 -89 -31 -177 -20 -77 -34 -141 -33 -142 1 -1
13 -5 27 -9 24 -6 26 -3 43 77 10 46 25 119 33 162 9 44 19 87 24 97 11 19 -5
29 -45 29 -21 0 -23 -4 -18 -37z"/>
<path d="M8606 7945 c-84 -29 -136 -109 -136 -208 0 -70 20 -112 73 -151 45
-33 132 -29 180 7 95 72 115 237 39 311 -43 40 -108 57 -156 41z m97 -36 c13
-6 32 -26 41 -45 33 -71 13 -165 -50 -231 -49 -52 -84 -56 -132 -15 -28 23
-34 36 -39 83 -5 47 -1 66 22 118 42 92 91 121 158 90z"/>
<path d="M6676 7907 c-16 -11 -17 -30 -12 -202 3 -151 7 -189 18 -187 30 8 36
22 26 64 -5 23 -8 48 -6 56 2 8 30 23 63 33 l60 19 20 -23 c11 -12 29 -35 40
-50 19 -26 23 -27 48 -16 15 7 27 15 27 19 0 3 -16 22 -36 41 -20 18 -74 85
-120 147 -47 61 -90 112 -97 112 -7 0 -21 -6 -31 -13z m93 -140 c18 -27 31
-50 29 -51 -1 -2 -24 -10 -50 -19 l-48 -16 0 91 c0 102 -4 103 69 -5z"/>
<path d="M8903 7748 c-22 -46 -57 -114 -77 -151 -20 -38 -34 -73 -30 -78 10
-17 33 -9 39 14 4 12 30 65 58 117 l52 95 7 -60 c4 -33 15 -100 24 -150 35
-191 31 -192 148 23 31 56 63 113 72 127 14 22 14 24 -4 34 -18 10 -24 4 -52
-52 -48 -93 -103 -182 -106 -171 -2 5 -12 72 -24 149 -20 140 -34 185 -55 185
-6 0 -29 -37 -52 -82z"/>
<path d="M6369 7780 c-79 -42 -123 -130 -105 -207 20 -80 104 -153 180 -155
69 -1 166 61 166 108 0 30 -49 134 -63 134 -7 0 -18 -4 -26 -9 -12 -8 -9 -20
17 -69 l32 -60 -22 -27 c-16 -18 -37 -28 -65 -32 -62 -8 -116 26 -148 93 -28
58 -30 79 -14 121 25 66 90 98 149 73 39 -16 47 -8 26 25 -20 31 -73 33 -127
5z"/>
<path d="M9283 7587 c-14 -22 -49 -64 -77 -93 -29 -28 -60 -63 -69 -77 -51
-79 21 -165 130 -155 36 3 38 1 41 -27 3 -28 27 -65 41 -65 3 0 6 28 6 63 l0
62 52 25 c29 14 53 28 53 33 0 10 -38 9 -77 -2 -29 -8 -31 -7 -36 17 -2 15 -6
34 -8 42 -3 10 3 14 16 13 34 -4 75 18 91 49 27 53 -8 104 -99 141 l-37 16
-27 -42z m113 -48 c12 -24 13 -33 3 -45 -23 -27 -49 -35 -95 -28 -44 6 -45 7
-25 25 10 10 29 36 42 58 18 34 25 38 40 30 11 -5 26 -23 35 -40z m-101 -162
c0 -37 -2 -67 -5 -66 -3 0 -17 -4 -33 -10 -56 -22 -104 29 -79 84 21 46 45 64
82 61 l35 -2 0 -67z"/>
<path d="M6060 7587 c-41 -22 -84 -49 -107 -70 l-22 -20 25 -20 c14 -10 62
-74 106 -141 45 -66 82 -123 84 -125 2 -2 17 5 34 16 24 15 28 22 17 26 -19 7
-77 91 -77 110 0 16 20 27 48 27 9 0 42 -15 73 -34 62 -37 109 -39 109 -5 0
11 -6 19 -13 19 -8 0 -38 13 -68 30 -30 16 -63 30 -74 30 -18 1 -19 1 -2 11
35 20 13 137 -28 153 -27 10 -78 7 -105 -7z m79 -41 c12 -13 24 -38 27 -57 5
-29 0 -40 -30 -71 -39 -42 -37 -43 -92 45 -18 28 -30 55 -28 59 7 10 76 47 90
48 6 0 20 -11 33 -24z"/>
<path d="M7565 7569 c-214 -11 -344 -35 -572 -102 -250 -75 -436 -161 -641
-297 -209 -139 -355 -267 -511 -446 -452 -517 -674 -1133 -647 -1794 18 -450
113 -770 349 -1185 173 -303 515 -651 843 -855 435 -272 806 -385 1299 -397
690 -17 1250 198 1794 686 269 242 518 628 648 1006 93 271 136 525 135 805 0
411 -88 763 -292 1166 -220 434 -491 745 -875 1000 -273 182 -529 296 -806
358 -184 41 -200 43 -393 55 -165 9 -159 9 -331 0z m333 -70 c175 -12 417 -58
562 -106 174 -58 469 -207 615 -311 172 -123 393 -330 520 -487 91 -114 275
-397 275 -425 0 -4 -28 -17 -63 -29 -139 -45 -341 -158 -471 -266 l-50 -40
-180 -6 c-214 -8 -370 -36 -571 -104 l-130 -43 -47 44 c-62 58 -170 109 -261
124 -42 8 -116 11 -181 7 l-108 -5 5 42 c3 22 21 154 40 291 59 418 60 435 32
435 -27 0 -42 -30 -54 -107 -18 -110 -56 -163 -135 -184 -50 -14 -90 -5 -220
50 -50 22 -118 46 -151 55 -128 35 -382 30 -525 -11 -413 -116 -792 -496 -940
-940 -68 -204 -96 -427 -80 -628 22 -261 84 -461 205 -651 56 -88 226 -251
315 -301 206 -115 485 -152 702 -92 39 11 155 63 259 115 151 76 193 93 215
88 l27 -7 -6 -153 c-3 -84 -2 -156 2 -158 4 -3 21 7 38 23 26 23 32 38 38 92
9 87 42 348 54 434 11 74 59 316 64 321 2 2 21 -1 43 -7 21 -6 73 -9 114 -7
101 6 164 38 271 137 134 125 253 314 321 514 28 82 32 104 31 207 0 77 -5
131 -15 163 -19 55 -22 52 91 94 176 66 375 103 544 103 l112 -1 -76 -72
c-153 -144 -309 -328 -463 -546 -114 -161 -209 -316 -399 -646 -314 -548 -423
-710 -598 -887 -105 -106 -106 -107 -145 -102 -21 3 -52 10 -68 15 -16 5 -82
9 -147 9 -98 0 -131 -4 -198 -25 -119 -38 -162 -103 -111 -168 54 -68 320 -58
493 20 65 29 60 30 202 -21 98 -35 186 -47 344 -47 216 1 365 27 537 96 347
140 635 367 874 689 321 433 467 937 378 1305 -6 25 -27 82 -48 127 -68 149
-223 272 -367 292 l-48 7 70 56 c124 100 238 165 377 213 43 15 82 25 88 21
27 -17 144 -305 184 -457 97 -364 116 -660 65 -988 -77 -487 -312 -964 -649
-1314 -348 -362 -785 -612 -1250 -715 -176 -39 -301 -51 -524 -51 -627 0
-1206 251 -1708 738 -138 134 -218 230 -323 387 -211 316 -347 677 -390 1035
-17 135 -19 437 -5 565 88 787 576 1520 1265 1902 248 138 586 246 880 282
169 21 272 23 453 10z m-590 -1143 c200 -68 304 -184 352 -391 33 -142 36
-136 -77 -174 -417 -140 -819 -562 -930 -978 -23 -87 -27 -118 -27 -268 -1
-185 13 -260 71 -384 52 -110 202 -222 320 -238 83 -11 18 -27 -128 -31 -165
-5 -244 10 -369 71 -214 104 -378 359 -450 702 -124 594 167 1342 627 1613
178 105 435 138 611 78z m807 -571 c32 -9 80 -27 106 -41 45 -25 117 -90 108
-97 -2 -2 -38 -27 -80 -55 -120 -80 -220 -163 -292 -243 -166 -185 -260 -343
-317 -529 -86 -282 -104 -338 -134 -410 -69 -162 -223 -358 -326 -414 -57 -31
-88 -31 -182 0 -177 58 -273 377 -208 694 54 266 161 483 339 689 148 171 300
279 507 360 l51 20 7 -61 c3 -34 6 -114 6 -178 0 -102 2 -119 17 -124 10 -4
22 -1 28 8 6 8 19 90 29 183 10 92 22 176 27 185 11 21 32 25 154 27 63 0 123
-5 160 -14z m1326 -60 c111 -57 186 -175 214 -339 19 -112 19 -168 -1 -307
-56 -408 -299 -876 -633 -1222 -173 -179 -324 -292 -503 -376 -264 -125 -503
-143 -760 -59 -38 12 -68 25 -68 29 0 4 17 18 38 31 72 44 194 161 288 277
172 209 261 356 634 1041 280 516 363 642 559 859 l85 93 56 -5 c31 -3 72 -13
91 -22z m-1040 -192 c58 -203 -90 -563 -326 -795 -121 -119 -251 -163 -310
-103 -99 98 110 531 373 776 77 72 214 169 237 169 7 0 18 -21 26 -47z m-1059
-2067 c24 -8 56 -17 71 -20 41 -10 25 -23 -63 -50 -86 -28 -216 -43 -274 -32
-29 6 -36 11 -36 31 0 57 200 104 302 71z"/>
<path d="M9618 7396 c-2 -8 -51 -71 -110 -140 -60 -69 -108 -128 -108 -131 0
-3 14 -5 32 -5 23 0 38 8 58 31 l26 31 38 -26 c21 -14 56 -31 77 -37 32 -10
43 -9 76 8 43 23 63 53 63 101 0 47 -20 80 -83 135 -61 52 -64 53 -69 33z m81
-83 c18 -22 31 -49 31 -65 0 -35 -54 -98 -84 -98 -25 0 -98 40 -103 56 -4 12
106 144 119 144 3 0 20 -17 37 -37z"/>
<path d="M5763 7379 c-48 -14 -86 -69 -91 -134 -6 -73 2 -98 45 -146 52 -57
85 -72 150 -67 140 12 204 166 116 276 -58 72 -133 96 -220 71z m124 -58 c57
-41 85 -86 91 -140 4 -41 1 -50 -25 -78 -72 -76 -168 -42 -229 82 -23 48 -25
58 -14 89 26 78 105 99 177 47z"/>
<path d="M9858 7161 c-7 -10 -68 -62 -135 -116 l-122 -98 28 -36 c16 -20 54
-59 84 -88 48 -44 58 -49 68 -37 10 13 2 25 -49 72 -34 32 -62 63 -62 68 0 6
26 30 58 52 31 23 86 68 122 101 l64 61 -21 19 c-20 19 -22 19 -35 2z"/>
<path d="M5440 7048 c-91 -46 -137 -167 -92 -240 50 -80 115 -118 201 -118 76
1 146 54 173 131 11 33 11 33 -68 106 -43 40 -81 73 -84 73 -3 0 -6 -13 -7
-28 -1 -16 -3 -35 -5 -43 -2 -9 7 -15 23 -17 37 -4 99 -64 99 -95 0 -37 -61
-87 -107 -87 -54 0 -144 44 -172 85 -55 81 -6 198 87 210 15 1 28 3 30 4 6 2
-19 41 -26 41 -4 0 -28 -10 -52 -22z"/>
<path d="M10040 6840 c-140 -29 -224 -52 -232 -63 -3 -6 -4 -16 -1 -22 3 -10
14 -10 50 1 57 17 83 18 83 1 0 -7 13 -28 29 -48 l30 -36 -35 -48 c-19 -27
-34 -52 -34 -57 0 -4 14 -22 31 -40 18 -20 27 -25 21 -13 -5 11 -7 27 -4 35 3
8 49 73 104 144 54 72 97 137 96 146 -4 22 -30 21 -138 0z m28 -85 c-23 -30
-46 -55 -49 -55 -9 0 -61 81 -56 86 6 6 87 22 120 23 l28 1 -43 -55z"/>
<path d="M5206 6769 c-14 -21 -13 -23 37 -53 93 -57 187 -121 187 -127 0 -3
-64 -10 -142 -14 -79 -4 -152 -8 -163 -10 -11 -1 -26 -3 -33 -4 -33 -3 18 -45
148 -122 86 -51 140 -90 140 -99 0 -9 -6 -25 -14 -35 -13 -18 -17 -17 -112 27
-55 25 -120 53 -146 62 -26 9 -57 21 -68 28 -17 11 -22 10 -30 -2 -5 -8 -9
-19 -7 -23 1 -5 72 -39 157 -77 85 -39 163 -75 173 -80 19 -11 47 2 47 21 0 5
13 30 29 56 22 35 27 51 19 60 -6 7 -16 13 -22 13 -17 0 -189 104 -193 117 -4
12 4 13 212 33 95 9 139 21 124 34 -2 2 -56 34 -119 71 -63 38 -136 86 -162
107 l-47 38 -15 -21z"/>
<path d="M10280 6646 c-8 -8 -75 -44 -147 -81 -100 -50 -133 -71 -133 -85 0
-28 19 -34 43 -14 12 11 33 25 47 33 14 8 58 34 98 57 39 24 72 39 72 33 0 -5
-7 -26 -16 -47 -27 -64 -82 -216 -89 -245 -4 -15 -11 -30 -16 -33 -5 -3 -9
-17 -9 -32 0 -15 4 -22 8 -16 6 10 254 134 310 155 25 10 28 27 8 55 -14 18
-15 18 -22 1 -7 -19 -210 -124 -219 -115 -3 3 20 72 50 154 35 93 54 157 50
172 -6 25 -15 28 -35 8z"/>
<path d="M10460 6271 c-20 -12 -194 -76 -249 -92 -47 -14 -60 -31 -41 -54 10
-12 17 -11 48 5 45 23 202 81 202 75 0 -7 -79 -127 -134 -205 -25 -36 -46 -71
-46 -77 0 -20 33 -16 107 13 82 31 246 85 248 81 2 -1 10 -17 20 -36 17 -33
17 -35 -1 -48 -10 -7 -23 -13 -28 -13 -11 0 -288 -81 -294 -86 -2 -1 -1 -11 2
-22 7 -20 7 -20 74 -1 37 11 119 33 182 50 63 17 117 33 118 34 5 5 -46 167
-58 185 -8 13 -11 13 -22 -3 -11 -14 -223 -97 -250 -97 -5 0 32 60 82 134 49
73 90 141 90 150 0 17 -26 21 -50 7z"/>
<path d="M4969 6253 c-41 -7 -78 -54 -105 -133 -13 -39 -24 -73 -24 -75 0 -2
33 -14 73 -26 116 -35 281 -87 297 -93 20 -8 62 87 67 152 9 100 -73 163 -227
176 -30 2 -67 2 -81 -1z m190 -86 c31 -18 62 -45 71 -59 13 -24 13 -32 0 -70
-19 -54 -34 -57 -141 -22 -175 55 -194 63 -197 78 -6 28 30 88 62 102 50 23
139 10 205 -29z"/>
<path d="M4853 5909 c-17 -5 -43 -23 -57 -40 -27 -32 -58 -120 -60 -173 -1
-27 2 -31 29 -32 17 0 71 -10 120 -22 196 -45 224 -50 235 -37 19 22 31 126
20 167 -14 50 -56 97 -105 118 -50 22 -140 32 -182 19z m128 -56 c69 -23 129
-78 129 -121 0 -17 -4 -42 -9 -55 l-10 -24 -78 12 c-44 7 -114 20 -156 30 -75
17 -77 18 -77 47 0 63 58 128 115 128 18 0 57 -8 86 -17z"/>
<path d="M10525 5765 c-77 -24 -150 -44 -162 -44 -29 -1 -37 -16 -23 -41 8
-15 15 -18 23 -11 16 13 219 73 225 66 3 -3 -10 -22 -29 -43 -132 -140 -179
-196 -179 -213 0 -10 4 -19 10 -19 19 0 325 52 332 56 13 8 9 42 -4 47 -7 2
-26 0 -43 -5 -37 -11 -199 -37 -204 -32 -2 1 8 13 21 26 43 40 185 202 196
224 12 22 7 34 -12 33 -6 0 -74 -20 -151 -44z"/>
<path d="M4710 5544 c-9 -23 -29 -139 -30 -170 0 -6 18 -11 41 -12 43 -2 227
-35 292 -53 20 -5 37 -15 37 -21 0 -32 13 10 30 103 24 127 24 129 2 129 -13
0 -18 -9 -20 -32 -1 -18 -7 -53 -13 -79 l-12 -45 -56 7 c-73 8 -101 17 -101
32 0 7 6 36 13 64 13 50 13 51 -8 55 -16 3 -21 -1 -22 -16 -4 -47 -15 -106
-21 -110 -4 -2 -33 1 -64 6 -66 11 -66 13 -44 98 8 30 12 58 10 62 -10 16 -25
7 -34 -18z"/>
<path d="M10500 5413 c-36 -7 -78 -40 -96 -75 -12 -23 -15 -52 -12 -109 1 -42
7 -81 11 -86 11 -11 129 -6 179 7 31 9 38 15 38 36 0 19 -4 25 -14 21 -33 -13
-138 -28 -155 -22 -34 10 -42 87 -13 121 9 11 32 31 50 44 30 20 42 22 109 18
66 -5 78 -8 105 -35 33 -34 49 -103 28 -127 -6 -9 -9 -20 -5 -26 6 -10 38 -14
46 -6 3 3 2 39 -2 81 -7 86 -25 114 -94 146 -38 18 -115 23 -175 12z"/>
<path d="M4662 5270 c3 -24 42 -43 178 -85 47 -14 92 -30 100 -35 18 -11 19
-10 -100 -34 -151 -31 -173 -36 -178 -41 -12 -11 23 -34 66 -44 26 -6 80 -21
120 -34 56 -18 70 -26 60 -34 -11 -9 -194 -53 -220 -53 -10 0 -10 -37 0 -44
14 -8 339 70 347 84 8 13 -18 27 -105 55 -156 50 -155 48 -59 69 46 9 106 24
133 33 46 15 47 16 30 32 -21 19 -69 40 -224 99 -155 58 -152 58 -148 32z"/>
<path d="M10562 4990 c-29 -12 -57 -70 -49 -102 11 -44 55 -78 99 -78 32 0 47
7 74 34 22 22 34 44 34 61 0 41 -59 95 -101 94 -19 0 -44 -4 -57 -9z"/>
<path d="M4840 4728 c-14 -7 -33 -30 -43 -50 -16 -33 -16 -40 -4 -71 26 -61
82 -83 142 -55 30 14 55 55 55 92 0 62 -93 113 -150 84z"/>
<path d="M10748 4615 c-8 -8 -208 -34 -281 -36 -38 -1 -75 -8 -85 -16 -16 -12
-16 -14 2 -28 10 -8 68 -36 128 -62 59 -25 108 -50 108 -54 0 -4 -26 -10 -57
-14 -32 -3 -78 -10 -103 -15 -25 -5 -64 -12 -87 -15 -43 -7 -63 -29 -35 -40 9
-3 79 -26 156 -52 78 -25 153 -52 168 -59 23 -12 27 -11 32 2 11 30 6 42 -21
46 -49 9 -185 48 -210 62 -22 11 -13 14 89 29 62 9 123 17 136 17 24 0 64 29
56 42 -3 4 -17 8 -31 8 -31 0 -236 92 -225 101 4 3 64 11 133 16 70 6 132 14
138 17 13 8 15 56 3 56 -5 0 -11 -2 -14 -5z"/>
<path d="M4989 4366 c-61 -19 -66 -23 -58 -43 8 -22 9 -22 56 -7 88 29 87 29
111 -14 34 -61 30 -94 -19 -136 -75 -64 -195 -72 -251 -16 -23 23 -28 37 -28
77 0 28 7 58 16 71 14 21 14 22 -8 22 -36 0 -48 -19 -48 -75 0 -69 33 -133 83
-158 117 -60 300 4 314 109 6 43 -17 128 -45 172 -17 27 -37 27 -123 -2z"/>
<path d="M10268 4122 c-46 -124 -53 -152 -39 -152 15 0 34 34 66 117 26 68 30
72 54 67 69 -16 101 -25 105 -32 2 -4 -9 -36 -26 -70 -24 -50 -27 -66 -18 -78
7 -7 15 -14 19 -14 4 0 18 32 31 71 14 39 28 73 31 75 14 8 119 -29 119 -43 0
-8 -9 -34 -20 -59 -20 -44 -22 -95 -4 -101 8 -3 74 170 74 195 0 6 -15 15 -32
21 -27 7 -158 48 -304 95 -18 5 -24 -4 -56 -92z"/>
<path d="M5120 4023 c-36 -14 -81 -33 -100 -43 -19 -9 -59 -26 -89 -36 -53
-19 -72 -37 -55 -54 9 -9 97 22 203 71 24 11 45 18 47 16 2 -2 -32 -70 -77
-152 -49 -90 -76 -152 -71 -157 6 -6 52 10 118 40 60 27 139 61 176 77 66 27
66 27 56 56 -12 35 -13 35 -41 8 -12 -11 -40 -30 -61 -41 -48 -25 -166 -70
-166 -63 0 2 36 68 81 145 44 77 77 145 74 150 -9 14 -22 12 -95 -17z"/>
<path d="M10193 3911 c-42 -88 -48 -116 -35 -160 26 -85 103 -140 199 -141 89
0 127 26 169 115 33 71 40 105 22 105 -37 0 -292 92 -318 115 -13 11 -18 6
-37 -34z m130 -55 c45 -18 106 -41 135 -50 28 -10 52 -22 52 -27 0 -21 -41
-88 -62 -103 -31 -22 -107 -20 -161 3 -51 22 -97 76 -97 114 0 30 29 97 42 97
5 0 46 -15 91 -34z"/>
<path d="M5285 3702 c-44 -21 -117 -55 -162 -76 -46 -22 -83 -42 -83 -45 0 -3
7 -14 14 -23 12 -16 24 -12 160 57 81 41 156 75 167 75 15 0 20 6 17 22 -5 34
-25 32 -113 -10z"/>
<path d="M10036 3615 c-70 -92 -73 -165 -10 -242 21 -26 56 -54 81 -65 49 -22
133 -23 174 -2 29 14 70 72 87 123 15 44 18 42 -128 129 -63 37 -127 76 -142
86 l-26 17 -36 -46z m131 -51 c37 -20 89 -54 115 -75 53 -45 54 -64 6 -118
-38 -42 -69 -47 -134 -25 -119 40 -171 148 -108 223 14 17 32 31 39 31 7 0 44
-16 82 -36z"/>
<path d="M5343 3567 c-44 -29 -110 -70 -146 -92 -58 -36 -64 -42 -56 -62 l8
-23 35 23 c159 102 187 119 192 114 3 -3 1 -14 -5 -24 -27 -52 -110 -298 -102
-306 11 -11 67 18 193 101 57 38 111 71 121 75 15 6 16 10 6 29 -17 33 -17 33
-42 11 -46 -43 -191 -135 -195 -124 -4 11 22 88 79 233 45 116 34 121 -88 45z"/>
<path d="M9850 3358 c-19 -31 -19 -33 -2 -36 17 -4 100 -65 173 -126 112 -96
109 -94 129 -57 8 15 1 24 -38 52 -99 71 -222 173 -222 186 0 23 -20 14 -40
-19z"/>
<path d="M5633 3308 c-156 -124 -233 -191 -233 -201 0 -7 4 -18 9 -25 6 -10
19 -2 52 30 25 24 73 68 108 98 l63 54 -6 -39 c-3 -22 -15 -96 -26 -163 -26
-158 -22 -166 45 -106 22 19 75 62 117 94 70 53 78 57 97 44 31 -22 29 -52
-12 -154 -82 -201 -90 -231 -74 -247 14 -14 31 -5 159 79 78 52 158 103 176
114 37 21 40 30 11 39 -13 5 -32 -1 -54 -17 -110 -78 -155 -108 -197 -132
l-48 -28 51 123 c28 68 58 134 67 147 17 27 17 27 -59 87 -14 11 -30 28 -35
38 -10 17 -15 14 -60 -25 -27 -24 -71 -61 -98 -82 l-49 -40 7 50 c4 27 16 97
27 156 26 135 20 152 -38 106z"/>
<path d="M9747 3243 c-11 -10 -8 -23 4 -23 6 0 31 -20 57 -44 26 -24 63 -57
82 -73 20 -15 47 -39 60 -52 l25 -23 -54 7 c-122 16 -322 30 -340 23 -17 -6
-4 -22 86 -110 57 -57 112 -115 121 -130 12 -21 19 -25 29 -16 25 20 13 41
-72 124 -47 46 -85 85 -85 88 0 6 64 0 204 -18 96 -13 112 -13 138 0 15 8 28
18 28 23 0 13 -249 231 -264 231 -7 0 -16 -3 -19 -7z"/>
<path d="M9442 2939 c-58 -11 -101 -44 -124 -96 -25 -56 -18 -89 31 -145 21
-24 43 -53 50 -66 33 -62 125 -79 197 -37 58 34 84 79 84 147 0 122 -116 218
-238 197z m49 -39 c39 -11 102 -68 126 -113 42 -81 -6 -176 -90 -179 -47 -2
-76 18 -98 65 -10 23 -32 55 -49 71 -54 53 -35 125 40 155 32 13 29 13 71 1z"/>
<path d="M6159 2862 c5 -10 30 -28 56 -41 26 -13 49 -29 52 -37 5 -15 -21 -52
-124 -176 -40 -47 -73 -91 -73 -96 0 -5 8 -12 18 -14 12 -4 51 33 140 133 118
134 121 139 99 150 -12 7 -48 32 -79 56 -59 45 -107 59 -89 25z"/>
<path d="M9005 2671 c-62 -28 -95 -73 -95 -129 0 -54 35 -135 71 -169 78 -71
214 -51 260 38 39 78 18 162 -57 228 -62 55 -110 64 -179 32z m115 -43 c81
-55 119 -181 71 -232 -26 -28 -76 -42 -110 -31 -57 18 -121 118 -121 190 0 87
83 125 160 73z"/>
<path d="M6500 2645 c0 -21 -22 -77 -35 -93 -2 -2 -17 7 -35 19 -36 28 -106
30 -143 6 -29 -19 -57 -75 -57 -115 0 -57 69 -112 140 -112 42 0 70 33 127
149 26 53 54 104 62 114 15 17 14 20 -8 38 -32 26 -51 24 -51 -6z m-74 -106
c20 -16 18 -32 -11 -89 -33 -65 -56 -77 -98 -53 -47 28 -49 78 -6 128 29 33
37 36 67 31 18 -3 40 -10 48 -17z"/>
<path d="M6656 2574 c-10 -27 -7 -99 8 -147 l14 -46 -47 -17 c-53 -19 -81 -47
-81 -78 1 -48 70 -96 139 -96 40 0 41 1 107 100 36 55 68 115 71 133 7 47 -23
80 -102 108 -36 12 -65 26 -65 30 0 5 -9 13 -19 18 -15 8 -20 7 -25 -5z m142
-90 c28 -18 29 -56 2 -99 -39 -64 -68 -51 -90 38 -11 47 -11 59 0 72 15 18 50
14 88 -11z m-93 -154 c4 -6 10 -8 14 -6 4 3 12 1 19 -3 8 -5 6 -18 -9 -46 -24
-45 -35 -55 -63 -55 -23 0 -66 37 -66 57 0 39 87 82 105 53z"/>
<path d="M8784 2558 l-21 -10 28 -70 c16 -38 26 -74 23 -79 -16 -27 -98 15
-172 88 -7 7 -19 13 -26 13 -15 0 -53 -27 -46 -32 29 -24 143 -98 150 -98 5 0
-2 -16 -15 -36 -33 -49 -33 -97 1 -131 23 -23 31 -25 76 -20 28 4 58 13 68 22
9 8 20 15 24 15 3 0 23 7 42 15 l36 15 -20 27 c-19 29 -102 230 -102 249 0 5
-6 17 -12 26 -10 12 -18 14 -34 6z m53 -200 c6 -7 16 -30 23 -52 11 -35 10
-40 -8 -59 -14 -14 -35 -20 -64 -21 -37 -1 -44 3 -56 26 -11 24 -10 32 7 67
11 21 26 41 33 44 24 10 56 7 65 -5z"/>
<path d="M8492 2456 c-13 -7 -19 -16 -13 -21 14 -16 75 -225 65 -225 -2 0 -55
41 -117 91 -61 50 -117 93 -124 96 -6 2 -36 0 -66 -7 -52 -10 -55 -12 -61 -48
-16 -96 -25 -142 -42 -197 l-17 -60 -53 110 c-29 61 -53 122 -53 138 -1 25 -4
27 -41 27 -22 0 -40 -1 -40 -2 0 -15 172 -348 179 -348 14 0 38 39 46 75 25
115 80 295 90 295 6 0 17 -12 23 -26 21 -45 64 -255 58 -280 -6 -21 -3 -24 21
-24 27 0 71 20 46 20 -7 0 -17 17 -23 38 -18 63 -49 207 -45 210 1 2 50 -36
106 -84 131 -109 143 -117 169 -109 15 5 18 11 11 23 -13 25 -81 271 -81 292
0 26 -11 30 -38 16z"/>
<path d="M6972 2413 c-15 -54 -90 -264 -96 -271 -13 -12 -5 -32 12 -32 14 0
26 22 52 98 55 162 52 160 89 41 47 -154 62 -190 73 -183 21 13 133 318 122
335 -3 5 -14 9 -25 9 -14 0 -19 -7 -19 -28 0 -35 -64 -229 -72 -216 -3 5 -20
59 -38 119 -50 170 -77 205 -98 128z"/>
<path d="M7303 2350 c-72 -52 -100 -177 -56 -252 32 -55 76 -78 149 -78 59 0
67 3 103 36 49 44 64 87 59 168 -4 73 -25 107 -84 136 -59 29 -120 26 -171
-10z m152 -20 c44 -27 59 -67 52 -138 -7 -79 -23 -108 -71 -131 -53 -25 -88
-18 -126 26 -25 28 -30 42 -30 86 0 58 36 148 67 166 28 16 73 13 108 -9z"/>
<path d="M7621 2223 c-2 -76 -4 -156 -5 -178 l-1 -40 78 -3 c64 -2 77 0 77 13
0 12 -12 15 -55 15 l-56 0 6 58 c3 31 7 96 10 143 2 47 7 94 11 103 4 11 1 16
-14 16 -11 0 -26 2 -34 5 -10 4 -14 -23 -17 -132z"/>
<path d="M7820 2352 c-25 -3 -26 -4 -19 -60 4 -31 8 -110 8 -175 l1 -118 63 2
c93 2 117 9 117 30 0 16 -5 18 -27 12 -16 -3 -44 -7 -63 -7 l-35 -1 -6 75 c-4
41 -5 112 -2 157 2 45 0 83 -4 85 -5 2 -19 2 -33 0z"/>
</g>
</svg>
